<?xml version="1.0" encoding="UTF-8" standalone="no"?>
<svg
   width="16"
   height="16"
   version="1.1"
   id="svg1"
   sodipodi:docname="icon.svg"
   inkscape:version="1.3.2 (091e20e, 2023-11-25, custom)"
   inkscape:export-filename="icon.svg"
   inkscape:export-xdpi="96"
   inkscape:export-ydpi="96"
   xmlns:inkscape="http://www.inkscape.org/namespaces/inkscape"
   xmlns:sodipodi="http://sodipodi.sourceforge.net/DTD/sodipodi-0.dtd"
   xmlns="http://www.w3.org/2000/svg"
   xmlns:svg="http://www.w3.org/2000/svg">
  <defs
     id="defs1" />
  <sodipodi:namedview
     id="namedview1"
     pagecolor="#ffffff"
     bordercolor="#000000"
     borderopacity="0.25"
     inkscape:showpageshadow="2"
     inkscape:pageopacity="0.0"
     inkscape:pagecheckerboard="0"
     inkscape:deskcolor="#d1d1d1"
     inkscape:zoom="16.661204"
     inkscape:cx="9.5431281"
     inkscape:cy="15.695145"
     inkscape:window-width="1920"
     inkscape:window-height="1051"
     inkscape:window-x="-9"
     inkscape:window-y="-9"
     inkscape:window-maximized="1"
     inkscape:current-layer="svg1" />
  <path
     id="path1"
     d="m 3.007708,1 c -1.1044133,0.020252 -2,0.8954011 -2,2 V 4 L 8,3.9451294 v -1 C 8,1.8405305 7.1043836,0.92487792 6,0.94512936 Z M 5,1.9451292 h 1 v 1 H 5 Z M 1,5 v 8 c 0,1.104599 0.8954311,2 2,2 h 10 c 1.104599,0 2,-0.895401 2,-2 V 5 Z M 2.8417969,6.3164062 H 13.158203 V 7.3691406 H 4.3164062 V 8.421875 H 13.158203 V 9.4746094 H 7.2636719 v 1.0507816 h 5.8945311 v 1.052734 H 6.5253906 c -0.4069618,0 -0.7363281,-0.234704 -0.7363281,-0.525391 V 9.4746094 H 4.3164062 v 3.1562496 h 8.8417968 v 1.052735 H 3.578125 c -0.4069617,0 -0.7363281,-0.234704 -0.7363281,-0.525391 z"
     style="fill:#e0e0e0;fill-opacity:1"
     sodipodi:nodetypes="ssccsssccccccsssscccccccccccccsscccccssc" />
</svg>
